<svg xmlns="http://www.w3.org/2000/svg" width="86px" height="14px" viewBox="0,0,86,14">
<path d="m2,0h3v1h4v-1h3v2h2v3h-1v8h-1v1h-10v-1h-1v-8h-1v-3h2zm17,4h2v3h1v-1h1v-1h1v-1h2v1h-1v1h-1v1h-1v1h1v1h1v1h1v1h-3v-1h-1v-1h-1v2h-2zm21,0h2v7h-6v-1h-1v-3h1v-1h4zm14,0h2v2h2v1h-2v4h-2v-4h-2v-1h2zm11,0h3v1h1v1h1v5h-2v-2h-3v2h-2v-5h1v-1h1zm2,1h-1v1h-1v2h3v-2h-1zm-39,1h5v1h1v3h-1v1h-5v-1h-1v-3h1zm2,1h-1v3h3v-3zm8,0h-1v3h3v-3zm6-1h5v1h1v3h-1v1h-5v-1h-1v-3h1zm2,1h-1v3h3v-3zm25-1h6v1h1v2h-1v1h-4v2h-2zm3,1h-1v2h3v-2zm5-1h6v1h1v2h-1v1h-4v2h-2zm3,1h-1v2h3v-2zm-79,2h-1v1h2v-1zm4,0h-1v1h2v-1zm4,0h-1v1h2v-1zm-6,1h-1v1h2v-1zm4,0h-1v1h2v-1z"/>
</svg>