<svg xmlns="http://www.w3.org/2000/svg" viewBox="0,0,12,12" width="12" height="12">
<path d="m2,1h5v2h5v4h-1v1h-1v1h-1v2h-4v-2h-1v-1h-1v-2h-1v-1h-1v-3h1zm2,1h-1v1h-1v1h1v1h1v2h1v1h2v1h-1v1h2v-2h1v-1h1v-1h1v-2h-5v-2z" fill="#fff"/>
<path d="m3,2h3v2h5v1h-2v1h1v1h-1v1h-4v-1h-1v-1h2v-1h-3zm2,1h-1v1h1zm3,3h-1v1h2v-1z" fill="#c9caca"/>
<path d="m2,3h1v1h-1zm7,2h2v1h-2v1h-2v-1h2z" fill="#7f8080"/>
<path d="m4,3h1v1h-1z" fill="#240000"/>
<path d="m4,5h2v1h-2z" fill="#bc6db9"/>
<path d="m7,8h1v2h-2v-1h1z" fill="#ff8700"/>
</svg>